<?xml version="1.0" standalone="no"?><!DOCTYPE svg PUBLIC "-//W3C//DTD SVG 1.1//EN" "http://www.w3.org/Graphics/SVG/1.1/DTD/svg11.dtd"><svg t="1674026513912" class="icon" viewBox="0 0 1024 1024" version="1.1" xmlns="http://www.w3.org/2000/svg" p-id="2715" xmlns:xlink="http://www.w3.org/1999/xlink" width="200" height="200"><path d="M971.570714 188.211618L835.890782 323.89155c-0.9216 0.9216-1.843199 1.740799-2.764799 2.457599-39.01438 35.737582-99.63515 33.075183-135.372732-6.041597-33.382383-36.454382-33.484783-92.364754-0.3072-129.023936 0.8192-1.126399 1.843199-2.252799 2.867199-3.174398L835.788382 52.429286c-31.539184-13.516793-65.535967-20.47999-99.83995-20.47999-141.209529 0-256.102272 114.892743-256.102272 256.102272 0 25.497587 3.788798 50.790375 11.263994 75.161562 3.891198 12.492794-0.3072 26.111987-10.649594 34.303983L88.883156 710.963357c-35.942382 30.310385-56.934372 74.649563-56.934372 121.139139 0 88.166356 71.679964 159.84632 159.84632 159.84632 46.387177 0 90.623955-20.88959 121.446339-57.241571l313.139044-391.270205c8.191996-10.239995 21.811189-14.438393 34.406383-10.547194 24.371188 7.475196 49.663975 11.263994 75.161562 11.263994 141.209529 0 256.102272-114.892743 256.102272-256.102272-0.1024-34.303983-7.065596-68.300766-20.47999-99.83995z" fill="#F0EEE2" p-id="2716"></path><path d="M236.543882 588.697818l-53.145574 58.57277 188.006306 185.958307 53.145574-58.47037z" fill="#BBAA9C" p-id="2717"></path><path d="M608.050896 192.000416c8.806396 0 15.974392-7.167996 15.974392-15.974392s-7.167996-15.974392-15.974392-15.974392-15.974392 7.167996-15.974392 15.974392c-0.1024 8.806396 7.065596 15.974392 15.974392 15.974392z m319.89744 223.948688h-79.97436c-8.806396 0-15.974392 7.167996-15.974392 15.974392s7.167996 15.974392 15.974392 15.974392h79.97436c8.806396 0 15.974392-7.167996 15.974392-15.974392s-7.065596-15.974392-15.974392-15.974392zM191.999904 719.974552h-48.025576c-8.806396 0.2048-15.769592 7.577596-15.564792 16.383992 0.2048 8.499196 7.065596 15.359992 15.564792 15.564792h48.025576c8.806396-0.2048 15.769592-7.577596 15.564792-16.383992-0.2048-8.499196-7.065596-15.359992-15.564792-15.564792z m288.051056-255.999872h-79.97436c-8.806396 0-15.974392 7.167996-15.974392 15.974392s7.167996 15.974392 15.974392 15.974392h79.97436c8.806396 0 15.974392-7.167996 15.974392-15.974392s-7.167996-15.974392-15.974392-15.974392z m-16.076792 127.999936h-31.948784c-8.806396 0.2048-15.769592 7.577596-15.564792 16.383992 0.2048 8.499196 7.065596 15.359992 15.564792 15.564792h31.948784c8.806396 0.2048 16.179192-6.758397 16.383992-15.564792s-6.758397-16.179192-15.564792-16.383992h-0.8192z m-48.025576 144.076728h-63.999968c-8.806396 0.2048-15.769592 7.577596-15.564792 16.383992 0.2048 8.499196 7.065596 15.359992 15.564792 15.564792h63.999968c8.806396-0.2048 15.769592-7.577596 15.564792-16.383992-0.1024-8.499196-6.963197-15.359992-15.564792-15.564792z m272.076664-320.10224h-15.974392c-8.806396 0-15.974392 7.167996-15.974392 15.974392s7.167996 15.974392 15.974392 15.974392h15.974392c8.806396 0 15.974392-7.167996 15.974392-15.974392s-7.167996-15.974392-15.974392-15.974392zM335.974232 896.000064H255.999872c-8.806396-0.2048-16.179192 6.758397-16.383992 15.564792-0.2048 8.806396 6.758397 16.179192 15.564792 16.383992H335.974232c8.806396-0.2048 15.769592-7.577596 15.564792-16.383992-0.2048-8.499196-7.065596-15.359992-15.564792-15.564792z m288.051056-575.999712h-31.948784c-8.806396 0-15.974392 7.167996-15.974392 15.974392s7.167996 15.974392 15.974392 15.974392h31.948784c8.806396 0 15.974392-7.167996 15.974392-15.974392s-7.167996-15.974392-15.974392-15.974392z" fill="#D8D5BA" p-id="2718"></path><path d="M979.76271 134.758845L813.260393 301.261161l-0.1024-0.1024c-25.087987 24.780788-65.535967 24.473588-90.316754-0.614399-24.473588-24.883188-24.473588-64.819168 0-89.702355l-0.1024-0.1024L889.343555 44.23729C843.365978 15.258104 790.220405-0.101888 735.948432 0.000512 576.818912 0.000512 447.897376 129.024447 447.897376 288.051568c0 28.671986 4.300798 57.139171 12.697594 84.479958L68.915166 685.977769C27.135986 721.203351 0 773.222525 0 832.102496 0 938.086443 85.913557 1024 191.897504 1024c58.879971 0 111.001544-27.135986 146.124727-68.915166l313.343843-391.577404c27.443186 8.396796 55.910372 12.697594 84.582358 12.697594 159.12952 0 288.051056-129.023935 288.051056-288.051056 0.1024-54.374373-15.257592-107.519946-44.236778-153.395123zM288.563056 914.432055c-24.678388 28.979186-59.90397 45.567977-96.767952 45.567977-70.553565-0.1024-127.795136-57.241571-127.897536-127.897536 0.1024-37.068781 16.588792-72.294364 44.851178-96.153552l78.028761-62.463969 163.532718 163.635118-61.747169 77.311962z m82.022359-102.502349L212.070294 653.414585l37.068781-29.695985 151.142325 151.142325-29.695985 37.068781z m365.363017-299.82705c-22.323189 0-44.441578-3.276798-65.740767-9.830395L628.633286 489.472267l-27.135987 33.996783-181.145509 226.303887-146.124727-146.124727 226.303887-181.145509 33.894383-27.135987-12.697594-41.574379c-6.553597-21.299189-9.830395-43.417578-9.830395-65.740767 0-123.596738 100.45435-224.051088 224.051088-224.051088 13.311993 0 26.521587 1.126399 39.52638 3.481598l-97.996751 97.996751 0.3072 0.3072c-49.561575 50.175975-48.947176 131.071934 1.228799 180.53111 49.663975 49.049575 129.638335 49.049575 179.302311 0l0.2048 0.2048 97.996751-97.996751c2.355199 13.107193 3.481598 26.316787 3.481598 39.52638 0 123.596738-100.55675 224.051088-224.051088 224.051088zM160.05112 832.000096c0 17.612791 14.335993 31.948784 32.051184 31.846384s31.948784-14.335993 31.846384-32.051184c0-17.612791-14.335993-31.846384-31.948784-31.846384-17.715191 0.1024-32.051184 14.438393-31.948784 32.051184z" fill="#5F4E56" p-id="2719"></path></svg>