<?xml version="1.0" standalone="no"?><!DOCTYPE svg PUBLIC "-//W3C//DTD SVG 1.1//EN" "http://www.w3.org/Graphics/SVG/1.1/DTD/svg11.dtd"><svg t="1631518097787" class="icon" viewBox="0 0 1024 1024" version="1.1" xmlns="http://www.w3.org/2000/svg" p-id="2140" xmlns:xlink="http://www.w3.org/1999/xlink" width="200" height="200"><defs><style type="text/css"></style></defs><path d="M424.96 886.56896c0 48.07168 38.96832 87.04 87.04 87.04s87.04-38.96832 87.04-87.04H424.96zM486.4 51.2a20.48 20.48 0 0 0-20.48 20.48v29.312C309.51936 115.2768 187.01312 246.784 187.01312 406.90688v264.48896c0 3.29728-0.53248 6.5792-1.57696 9.71264l-38.84032 116.52096c-6.6304 19.8912 8.17664 40.43264 29.14304 40.43264h669.2864c20.9664 0 35.77344-20.54144 29.14304-40.43264l-38.84032-116.52096a30.72512 30.72512 0 0 1-1.57696-9.71264V406.90688c0-160.768-123.4944-292.68992-280.79104-306.08384V71.68a20.48 20.48 0 0 0-20.48-20.48h-46.08zM268.93312 406.90688c0-124.416 100.864-225.28 225.28-225.28h32.33792c124.42112 0 225.28 100.864 225.28 225.28v264.48896a112.64 112.64 0 0 0 5.78048 35.61984l16.37888 49.1264H246.77888l16.37376-49.1264a112.6656 112.6656 0 0 0 5.7856-35.61984V406.90688z" fill="#353535" p-id="2141"></path></svg>