<?xml version="1.0" standalone="no"?><!DOCTYPE svg PUBLIC "-//W3C//DTD SVG 1.1//EN" "http://www.w3.org/Graphics/SVG/1.1/DTD/svg11.dtd"><svg t="1611060466000" class="icon" viewBox="0 0 1024 1024" version="1.1" xmlns="http://www.w3.org/2000/svg" p-id="5009" xmlns:xlink="http://www.w3.org/1999/xlink" width="200" height="200"><defs><style type="text/css"></style></defs><path d="M943.688 535.998c0 238.47-193.206 431.678-431.7 431.678-238.486 0-431.692-193.208-431.692-431.678 0-238.486 193.206-431.692 431.692-431.692 238.494 0 431.7 193.206 431.7 431.692z" fill="#FFCE54" opacity=".5" p-id="5010"></path><path d="M887.728 535.998c0 207.4-168.194 375.716-375.74 375.716-207.556 0-375.732-168.316-375.732-375.716 0-207.414 168.176-375.732 375.732-375.732 207.548 0 375.74 168.318 375.74 375.732z" fill="#FFCE54" opacity=".4" p-id="5011"></path><path d="M831.768 535.998c0 176.454-143.118 319.756-319.78 319.756-176.672 0-319.772-143.302-319.772-319.756 0-176.466 143.1-319.772 319.772-319.772 176.662 0 319.78 143.306 319.78 319.772z" fill="#FFCE54" opacity=".6" p-id="5012"></path><path d="M647.898 927.704l-31.976 31.976h-207.86l-31.978-31.976v-111.92h271.814z" fill="#AAB2BD" p-id="5013"></path><path d="M408.062 815.784h-31.978v111.92l31.978 31.976h31.978l-31.978-31.976z" fill="#FFFFFF" opacity=".4" p-id="5014"></path><path d="M615.922 815.784h31.976v111.92l-31.976 31.976h-31.978l31.978-31.976z" opacity=".3" p-id="5015"></path><path d="M775.806 535.982c0-145.692-118.132-263.796-263.818-263.796-145.694 0-263.812 118.104-263.812 263.796 0 95.932 51.354 179.624 127.908 225.808v53.992h271.814v-53.992c76.54-46.184 127.908-129.876 127.908-225.808z" fill="#E6E9ED" p-id="5016"></path><path d="M511.988 272.186c5.402 0 10.696 0.438 15.996 0.796-138.208 8.306-247.832 122.71-247.832 263 0 142.336 95.93 225.808 95.93 225.808-76.554-46.186-127.908-129.876-127.908-225.808 0.002-145.692 118.12-263.796 263.814-263.796z" fill="#FFFFFF" p-id="5017"></path><path d="M512.004 272.186c-5.402 0-10.696 0.438-16.004 0.796 138.222 8.306 247.832 122.71 247.832 263 0 142.336-95.932 225.808-95.932 225.808 76.57-46.186 127.908-129.876 127.908-225.808-0.002-145.692-118.102-263.796-263.804-263.796z" fill="#FFFFFF" p-id="5018"></path><path d="M440.04 959.68s15.988 31.978 71.95 31.978c55.966 0 71.956-31.978 71.956-31.978H440.04z" fill="#656D78" p-id="5019"></path><path d="M472.016 959.68H440.04s15.988 31.978 71.95 31.978c5.776 0 11.04-0.406 15.988-1.016-43.002-5.308-55.962-30.962-55.962-30.962z" fill="#FFFFFF" opacity=".4" p-id="5020"></path><path d="M551.966 959.68h31.976s-15.988 31.978-71.956 31.978c-5.778 0-11.04-0.406-15.99-1.016 43.012-5.308 55.97-30.962 55.97-30.962z" opacity=".3" p-id="5021"></path><path d="M376.084 799.794h271.814v15.988H376.084z" opacity=".2" p-id="5022"></path><path d="M663.886 535.982c0 83.83-68.044 151.892-151.882 151.892-83.878 0-151.892-68.062-151.892-151.892 0-83.876 68.014-151.89 151.892-151.89 83.838 0 151.882 68.014 151.882 151.89z" fill="#5D9CEC" p-id="5023"></path><path d="M564.584 393.63c-1.468 4.856-4.03 9.072-4.686 9.448-23.67 11.492-51.596 16.832-68.366 38.91-2.342 3.124-5.45 8.962-2.108 12.678 4.184 4.574 15.286-0.14 20.782 0.266 15.178 1.092 57.998 11.04 59.436 18.002 1.342 6.934-16.27 20.064-33.54 10.554-5.058-2.81-25.35-6.306-32.266-7.526-4.81-0.874-46.358 4.34-44.532 53.776 0.75 20.032 13.288 32.946 33.508 33.162 16.768 0.204 33.74-1.78 39.2 18.05 4.684 16.876 2.934 34.272 7.088 50.994 1.654 6.746 5.214 16.222 13.708 16.942 12.99 1.14 21.64-7.588 29.416-16.614 6.214-7.2 14.052-13.458 18.674-21.89 7.34-13.412 5.278-29.338 13.054-42.718 6.244-10.82 26.95-45.094 17.174-44.296-31.01 2.358-40.97-15.818-36.85-21.392 7.058-9.618 40.692 13.74 42.94-3.56 0.406-3.17 11.802-9.79 18.706-10.726-14.642-43.548-48.4-78.18-91.338-94.06z" fill="#A0D468" p-id="5024"></path><path d="M506.68 455.244c-0.39-0.25-0.954-0.234-1.266-0.578-3.342-3.716-0.234-9.556 2.108-12.678 16.77-22.078 44.696-27.418 68.366-38.91 0.376-0.204 1.282-1.594 2.28-3.53-4.434-2.154-8.93-4.2-13.582-5.918-1.468 4.856-4.03 9.072-4.686 9.448-23.67 11.492-51.596 16.832-68.366 38.91-2.342 3.124-5.45 8.962-2.108 12.678 3.436 3.762 11.414 1.358 17.254 0.578zM555.09 631.946c-4.154-16.722-2.404-34.118-7.088-50.994-5.464-19.83-22.43-17.848-39.2-18.05-20.22-0.216-32.758-13.13-33.508-33.162-1.358-36.85 21.376-49.122 35.022-52.62-2.608-0.468-4.918-0.876-6.478-1.156-4.81-0.874-46.358 4.34-44.532 53.776 0.75 20.032 13.288 32.946 33.508 33.162 16.768 0.204 33.74-1.78 39.2 18.05 4.684 16.876 2.934 34.272 7.088 50.994 1.654 6.746 5.214 16.222 13.708 16.942 4.184 0.36 7.87-0.36 11.274-1.718-5.122-3.108-7.684-9.932-8.994-15.224z" fill="#FFFFFF" opacity=".5" p-id="5025"></path><path d="M360.112 535.982c0 41.19 16.472 78.506 43.126 105.876 0.888-0.374 24.184-85.296-43.126-105.876z" fill="#A0D468" p-id="5026"></path><path d="M392.088 535.982c0-78.474 59.536-143.038 135.896-151.032a154.426 154.426 0 0 0-15.98-0.858c-83.878 0-151.892 68.014-151.892 151.89 0 83.83 68.014 151.892 151.892 151.892 5.402 0 10.726-0.312 15.98-0.86-76.358-7.992-135.896-72.604-135.896-151.032z" fill="#FFFFFF" opacity=".2" p-id="5027"></path><path d="M631.91 535.982c0 78.474-59.522 143.04-135.896 151.034 5.262 0.546 10.586 0.86 15.99 0.86 83.87 0 151.882-68.016 151.882-151.892 0-83.83-68.014-151.89-151.882-151.89a154.74 154.74 0 0 0-15.99 0.858c76.374 7.992 135.896 72.602 135.896 151.03z" fill="#FFFFFF" opacity=".2" p-id="5028"></path><path d="M615.922 967.676H408.078a7.982 7.982 0 0 1-5.652-2.344l-31.978-31.976a7.988 7.988 0 0 1-2.342-5.652v-111.92a7.988 7.988 0 0 1 7.994-7.994h271.798a7.998 7.998 0 0 1 7.994 7.994v111.92a7.992 7.992 0 0 1-2.342 5.652l-31.976 31.976a7.99 7.99 0 0 1-5.652 2.344z m-204.534-15.99h201.224l27.292-27.292v-100.616H384.094v100.616l27.294 27.292z" fill="#3A3847" p-id="5029"></path><path d="M360.112 871.742a7.986 7.986 0 0 1-7.978-7.572 7.994 7.994 0 0 1 7.556-8.4l303.76-15.988c4.498-0.64 8.182 3.154 8.4 7.558 0.25 4.402-3.152 8.164-7.556 8.398l-303.76 15.988c-0.142 0.016-0.282 0.016-0.422 0.016zM360.112 919.708a7.994 7.994 0 0 1-0.422-15.972l303.76-15.99c4.498-0.514 8.182 3.156 8.4 7.558 0.25 4.402-3.152 8.166-7.556 8.4l-303.76 15.988c-0.142 0.016-0.282 0.016-0.422 0.016zM647.898 823.778H376.1a7.99 7.99 0 0 1-7.994-7.994v-49.558c-80.176-50.09-127.908-135.824-127.908-230.242 0-149.876 121.928-271.806 271.806-271.806 149.854 0 271.796 121.928 271.796 271.806 0 94.418-47.746 180.152-127.908 230.242v49.558a8 8 0 0 1-7.994 7.994z m-263.804-15.988h255.81V761.76c0-2.794 1.468-5.402 3.872-6.856 77.664-46.81 124.038-128.658 124.038-218.922 0-141.054-114.762-255.816-255.808-255.816-141.056 0-255.818 114.762-255.818 255.816 0 90.264 46.374 172.112 124.038 218.922a8.022 8.022 0 0 1 3.872 6.856v46.03zM512.004 999.652c-60.208 0-78.352-34.914-79.1-36.396a8 8 0 0 1 3.576-10.726 7.98 7.98 0 0 1 10.696 3.514c0.624 1.202 15.146 27.622 64.83 27.622 49.736 0 64.226-26.498 64.82-27.622 2.03-3.888 6.838-5.434 10.742-3.436s5.496 6.728 3.53 10.648c-0.752 1.482-18.894 36.396-79.094 36.396zM168.248 543.976H8.364a7.988 7.988 0 0 1-7.994-7.994 7.988 7.988 0 0 1 7.994-7.994h159.884a7.99 7.99 0 0 1 7.996 7.994 7.99 7.99 0 0 1-7.996 7.994zM1015.636 543.976h-159.886a7.98 7.98 0 0 1-7.994-7.994 7.98 7.98 0 0 1 7.994-7.994h159.886a8 8 0 0 1 7.994 7.994 7.998 7.998 0 0 1-7.994 7.994zM75.814 795.796a7.976 7.976 0 0 1-6.916-3.996 7.974 7.974 0 0 1 2.918-10.914l138.496-79.944c3.81-2.248 8.712-0.906 10.914 2.92a7.974 7.974 0 0 1-2.92 10.914l-138.494 79.942a7.916 7.916 0 0 1-3.998 1.078zM809.72 372.1a8.006 8.006 0 0 1-6.934-3.998 7.966 7.966 0 0 1 2.936-10.914l138.434-79.942a7.926 7.926 0 0 1 10.898 2.92 7.984 7.984 0 0 1-2.904 10.914l-138.434 79.942a8 8 0 0 1-3.996 1.078zM683.904 246.284a7.846 7.846 0 0 1-3.998-1.078 7.966 7.966 0 0 1-2.936-10.914l79.912-138.464a7.97 7.97 0 0 1 10.93-2.92 7.98 7.98 0 0 1 2.904 10.914l-79.912 138.464a7.952 7.952 0 0 1-6.9 3.998zM512.036 200.192a7.99 7.99 0 0 1-7.996-7.994l-0.032-159.856a7.99 7.99 0 0 1 7.996-7.994 7.99 7.99 0 0 1 7.994 7.994l0.032 159.856a7.99 7.99 0 0 1-7.994 7.994zM340.158 246.252a7.974 7.974 0 0 1-6.916-3.998l-79.944-138.432a7.974 7.974 0 0 1 2.92-10.914 7.966 7.966 0 0 1 10.914 2.92l79.944 138.432a7.974 7.974 0 0 1-2.92 10.914 7.936 7.936 0 0 1-3.998 1.078zM948.184 795.766a7.856 7.856 0 0 1-3.996-1.076l-138.464-79.944a7.966 7.966 0 0 1-2.936-10.914c2.188-3.826 7.122-5.136 10.93-2.92l138.464 79.944a7.982 7.982 0 0 1 2.904 10.914 7.956 7.956 0 0 1-6.902 3.996zM214.31 372.038a7.936 7.936 0 0 1-3.998-1.078L71.88 291.048a7.974 7.974 0 0 1-2.92-10.914 7.99 7.99 0 0 1 10.914-2.92l138.432 79.912a7.974 7.974 0 0 1 2.92 10.914 7.98 7.98 0 0 1-6.916 3.998z" fill="#3A3847" p-id="5030"></path><path d="M511.988 695.87c-88.156 0-159.886-71.73-159.886-159.886 0-88.156 71.73-159.886 159.886-159.886 88.162 0 159.892 71.73 159.892 159.886 0 88.154-71.73 159.886-159.892 159.886z m0-303.784c-79.35 0-143.898 64.546-143.898 143.896s64.548 143.896 143.898 143.896c79.358 0 143.904-64.546 143.904-143.896s-64.546-143.896-143.904-143.896z" fill="#3A3847" p-id="5031"></path><path d="M555.152 656.99c-1 0-1.998-0.046-3.06-0.14-6.996-0.594-16.332-5.058-20.766-22.982-2.156-8.652-2.81-17.3-3.474-25.67-0.672-8.776-1.31-17.066-3.544-25.108-3.076-11.118-9.82-12.18-26.934-12.18l-4.668-0.016c-24.234-0.266-40.488-16.3-41.408-40.862-0.968-26.386 9.572-41.236 18.58-49.042 14.084-12.194 30.822-13.678 35.38-12.896 20.534 3.624 30.408 6.012 34.716 8.4 5.964 3.31 11.368 2.514 14.866 1.296a17.184 17.184 0 0 0 4.964-2.702c-9.774-4.512-36.452-11.196-50.19-12.178-1.078-0.266-3.278 0.376-5.028 0.672-6.464 1.154-15.334 2.748-21.08-3.514-5.246-5.84-4.606-14.584 1.608-22.876 13.616-17.924 33.132-25.652 52.018-33.132 5.9-2.342 11.802-4.668 17.486-7.338a27.38 27.38 0 0 0 2.342-5.528c1.218-4.23 5.622-6.636 9.932-5.402a8.006 8.006 0 0 1 5.402 9.93c-0.156 0.468-3.436 11.506-8.494 14.334-6.996 3.404-13.896 6.136-20.798 8.884-17.604 6.964-34.232 13.552-45.116 27.886a12.56 12.56 0 0 0-1.156 1.794c1.656-0.172 3.702-0.532 5.028-0.764 3.168-0.562 6.12-1.124 9.024-0.906 0.61 0.046 63.228 7.556 66.664 24.388 1.154 5.902-2.124 12.24-8.744 17.066-7.994 5.808-22.36 9.852-36.474 2.078-1.436-0.782-7.142-2.67-29.048-6.512-2.404-0.266-14.818 1.218-24.342 10.492-8.228 8.026-12.118 19.784-11.554 34.976 0.594 16.02 9.93 25.292 25.608 25.464l4.48 0.016c15.098 0 35.764 0.016 42.352 23.906 2.626 9.524 3.374 18.984 4.06 28.134 0.626 8.072 1.218 15.694 3.06 23.062 0.782 3.17 2.998 10.586 6.622 10.898 8.586 0.702 14.458-4.31 22.702-13.866 2.092-2.452 4.374-4.792 6.652-7.136 4.34-4.434 8.432-8.618 11.054-13.378 2.966-5.45 4.184-11.82 5.434-18.55 1.498-8.026 3.06-16.316 7.712-24.342l1.624-2.78c8.962-15.41 13.428-24.264 15.49-29.322-19.674-0.468-31.51-8.978-36.224-17.504-3.342-6.042-3.374-12.334-0.094-16.816 6.372-8.65 18.174-5.512 28.604-2.716 4.06 1.078 11.554 3.108 13.71 2.374 0.404-8.978 17.956-16.27 24.856-17.16a7.99 7.99 0 0 1 8.962 6.9 8.002 8.002 0 0 1-6.9 8.962c-3.78 0.484-10.026 3.904-12.274 5.778-1.126 4.762-3.808 7.462-5.996 8.93-7.15 4.81-16.988 2.202-26.48-0.342-2.654-0.704-6.528-1.734-9.398-2.202 0.874 1.046 2.154 2.25 4.028 3.418 3.964 2.452 11.274 5.23 23.578 4.216 3.808-0.172 7.494 1.388 9.524 4.59 4.402 7.01 0.468 17.986-17.582 48.934l-1.592 2.748c-3.28 5.652-4.53 12.274-5.84 19.268-1.436 7.682-2.904 15.616-7.12 23.294-3.654 6.684-8.712 11.868-13.618 16.878-2.058 2.11-4.122 4.202-5.994 6.402-8.212 9.5-18.142 19.494-33.132 19.494zM406.032 649.434l-2.826-7.48-1.374-7.87 1.374 7.87-7.308-3.152c1.952-5.386 9.556-40.628-3.668-67.126-6.854-13.708-18.456-23.156-34.476-28.042a8.016 8.016 0 0 1-5.308-9.992 7.976 7.976 0 0 1 9.992-5.308c33.118 10.132 52.042 37.05 53.306 75.804 0.016 0.42 0.344 41.5-9.712 45.296z" fill="#3A3847" p-id="5032"></path></svg>