<?xml version="1.0" encoding="UTF-8"?>
<svg width="30px" height="22px" viewBox="0 0 30 22" version="1.1" xmlns="http://www.w3.org/2000/svg" xmlns:xlink="http://www.w3.org/1999/xlink">
    <title>查看</title>
    <g id="她说" stroke="none" stroke-width="1" fill="none" fill-rule="evenodd">
        <g id="她说主页" transform="translate(-108.000000, -933.000000)">
            <g id="编组-11" transform="translate(0.000000, 567.000000)">
                <g id="编组-10" transform="translate(107.000000, 360.000000)">
                    <g id="查看" transform="translate(0.000000, 1.000000)">
                        <rect id="矩形备份-2" x="0" y="0" width="32" height="32"></rect>
                        <g id="画板-1-副本-2" transform="translate(1.875000, 5.906250)" fill="#888888" fill-rule="nonzero">
                            <path d="M14.125,15.395625 C11.2015625,15.395625 8.823125,13.0171875 8.823125,10.09375 C8.823125,7.1703125 11.2015625,4.791875 14.125,4.791875 C17.0484375,4.791875 19.426875,7.1703125 19.426875,10.09375 C19.426875,13.0171875 17.0484375,15.395625 14.125,15.395625 Z M14.125,6.541875 C12.1633536,6.541875 10.573125,8.1321036 10.573125,10.09375 C10.573125,12.0553964 12.1633536,13.645625 14.125,13.645625 C16.0866464,13.645625 17.676875,12.0553964 17.676875,10.09375 C17.6746362,8.13303168 16.0857183,6.54411376 14.125,6.541875 Z" id="形状"></path>
                            <path d="M14.125,20.1709375 C12.2765625,20.1709375 10.4334375,19.834375 8.646875,19.1709375 C7.05118272,18.5756471 5.55500307,17.7417903 4.209375,16.6978125 C1.6225,14.6796875 0.015625,12.149375 0.015625,10.09375 C0.015625,8.038125 1.6225,5.5078125 4.209375,3.4903125 C5.55498296,2.44622461 7.05116365,1.61226193 8.646875,1.016875 C10.4334375,0.353125 12.2765625,0.016875 14.125,0.016875 C15.9734375,0.016875 17.81625,0.365625 19.61125,1.0534375 C21.2079154,1.66949063 22.7028603,2.52214966 24.0459375,3.5828125 C25.2771875,4.5584375 26.31875,5.670625 27.0584375,6.799375 C27.8278125,7.973125 28.234375,9.111875 28.234375,10.0940625 C28.234375,12.1590625 26.6271875,14.693125 24.0403125,16.7078125 C22.6943971,17.7497623 21.1982105,18.5815156 19.6028125,19.1746875 C17.8165625,19.835625 15.97375,20.1709375 14.125,20.1709375 Z M14.125,1.7665625 C12.4853125,1.7665625 10.8471875,2.06625 9.2565625,2.6575 C7.82866721,3.18999037 6.48979535,3.93597391 5.285625,4.87 C4.1971875,5.71875 3.2884375,6.6821875 2.65625,7.65625 C2.0809375,8.5434375 1.764375,9.409375 1.764375,10.09375 C1.764375,10.778125 2.0809375,11.645 2.65625,12.53125 C3.2871875,13.504375 4.1959375,14.46875 5.284375,15.3165625 C6.48878796,16.2514691 7.82809591,16.9981983 9.2565625,17.53125 C10.8471875,18.1225 12.4853125,18.4221875 14.125,18.4221875 C15.7646875,18.4221875 17.4040625,18.1234375 18.994375,17.5346875 C20.421929,17.004147 21.7607103,16.2600518 22.965,15.3278125 C24.05375,14.4803125 24.9621875,13.5178125 25.5921875,12.5446875 C26.1675,11.65625 26.484375,10.785 26.484375,10.09375 C26.484375,9.463125 26.1684375,8.63375 25.595,7.758125 C24.9565625,6.784375 24.0453125,5.8146875 22.9590625,4.954375 C21.7556371,4.00377413 20.4160676,3.23960012 18.9853125,2.6875 C17.390625,2.07625 15.7553125,1.7665625 14.125,1.7665625 Z" id="形状"></path>
                        </g>
                    </g>
                </g>
            </g>
        </g>
    </g>
</svg>