<svg t="1584341114171" class="icon" viewBox="0 0 1024 1024" version="1.1" xmlns="http://www.w3.org/2000/svg" p-id="1785" width="32" height="32"><path d="M504.576 976.32v-86.016H160V116.16h688.128v388.928h86.016V116.224A86.016 86.016 0 0 0 848.128 30.208H160.032a86.048 86.048 0 0 0-86.016 86.016v774.144a86.08 86.08 0 0 0 86.016 86.016H504.64l-0.064-0.064z" fill="#333333" p-id="1786"></path><path d="M246.048 460.192h344.064v86.016H246.048v-86.016z m0-215.04h516.064v86.016H246.048V245.152z m0 430.112h172.032v86.016H246.048v-86.016z" fill="#333333" p-id="1787"></path><path d="M764.736 770.848m-231.328 0a231.328 231.328 0 1 0 462.656 0 231.328 231.328 0 1 0-462.656 0Z" fill="#0066CC" p-id="1788"></path><path d="M713.152 658.656h48.96v118.528h-48.96z" fill="#0066CC" p-id="1789"></path><path d="M713.152 761.248h132v49.408h-132z" fill="#0066CC" p-id="1790"></path><path d="M764.736 770.848m-162.464 0a162.464 162.464 0 1 0 324.928 0 162.464 162.464 0 1 0-324.928 0Z" fill="#FFFFFF" p-id="1791"></path><path d="M685.312 863.168c-3.392 0-6.784 0-10.208-3.392-6.816-6.784-10.208-16.992-3.392-23.808l44.256-57.824c6.816-6.848 16.992-10.24 23.808-3.424l30.624 20.448 64.672-91.872c6.816-6.816 16.992-10.208 23.84-3.392 6.784 6.784 10.176 17.024 3.392 23.808l-71.488 105.504c-6.784 6.784-16.992 6.784-23.776 3.36l-34.048-20.384-34.016 44.224c-3.488 3.328-6.848 6.752-13.664 6.752z" fill="#0068CC" p-id="1792"></path><path d="M680.48 854.336c-3.392 0-6.784 0-10.208-3.392-6.816-6.784-10.208-16.992-3.392-23.808l44.256-57.824c6.816-6.848 16.992-10.24 23.808-3.424l30.624 20.448 64.672-91.872c6.816-6.816 16.992-10.208 23.84-3.392 6.784 6.784 10.176 17.024 3.392 23.808l-71.488 105.504c-6.784 6.784-16.992 6.784-23.776 3.36l-34.048-20.384-34.016 44.224c-3.488 3.36-6.848 6.752-13.664 6.752z" fill="#0068CC" p-id="1793"></path><path d="M877.344 784.064c-7.616 0-15.232-7.648-19.072-15.296l-15.232-57.12-53.344 15.264c-11.392 3.808-19.04 0-22.848-11.392-3.808-11.456 3.808-22.88 15.264-22.88l72.352-19.072c11.456-3.808 19.072 3.808 22.88 15.264l19.072 72.384c3.776 11.392-3.84 19.04-15.264 22.88h-3.808z" fill="#0068CC" p-id="1794"></path><path d="M877.344 773.664c-7.616 0-15.232-7.648-19.072-15.296l-15.232-57.12-53.344 15.264c-11.392 3.808-19.04 0-22.848-11.392-3.808-11.456 3.808-22.88 15.264-22.88l72.352-19.072c11.456-3.808 19.072 3.808 22.88 15.264l19.072 72.384c3.776 11.392-3.84 19.04-15.264 22.88h-3.808z" fill="#0068CC" p-id="1795"></path></svg>