<?xml version="1.0" standalone="no"?><!DOCTYPE svg PUBLIC "-//W3C//DTD SVG 1.1//EN" "http://www.w3.org/Graphics/SVG/1.1/DTD/svg11.dtd"><svg t="1674116397877" class="icon" viewBox="0 0 1024 1024" version="1.1" xmlns="http://www.w3.org/2000/svg" p-id="5033" xmlns:xlink="http://www.w3.org/1999/xlink" width="200" height="200"><path d="M762.952 912.902l-19.086-68.98 139.988-85.442-53.234-52.078 113.652-94.192-70.632-60.418 108.746-116.09-76.82-52.108 108.594-123.556-87.224-29.958L1023.812 0.18h0.032V0.148l-0.032 0.03-229.9 96.908-29.93-87.254-123.586 108.624-52.078-76.852-116.09 108.78-60.418-70.634-94.19 113.62-52.092-53.234-85.428 140.02-68.978-19.12s-134.85 364.388 73.774 576.108l-0.016 0.032c0.328 0.344 0.656 0.656 0.984 0.968 0.328 0.344 0.64 0.652 0.968 0.996l0.016-0.032c211.732 208.626 576.104 73.794 576.104 73.794z" fill="#9ED36A" p-id="5034"></path><path d="M1023.842 0.178V0.148l-0.032 0.03-167.418 254.892 72.758 27.616-97.312 117.964 70.322 46.486-107.654 118.808 62.2 46.266-110.186 87.036 55.108 55.984-116.402 57.296 15.996 65.976s-329.68 102.688-510.954-44.204c11.184 15.714-19.604-11.59-5.374 2.844l-0.016 0.032c0.328 0.344 0.656 0.656 0.984 0.968 0.328 0.344 0.64 0.652 0.968 0.996l0.016-0.032c211.732 208.624 576.104 73.792 576.104 73.792l-19.086-68.98 139.988-85.442-53.234-52.078 113.652-94.192-70.632-60.418 108.746-116.09-76.82-52.108 108.594-123.556-87.224-29.958L1023.81 0.176h0.032z" fill="#FFFFFF" opacity=".2" p-id="5035"></path><path d="M562.482 461.506c-8.31-8.31-21.82-8.31-30.148 0L6.418 987.442h-0.016c-8.326 8.34-8.326 21.836 0 30.18 8.34 8.308 21.836 8.308 30.162 0l525.918-525.936a21.33 21.33 0 0 0 0-30.18z" fill="#8AC054" p-id="5036"></path></svg>