<?xml version="1.0" standalone="no"?><!DOCTYPE svg PUBLIC "-//W3C//DTD SVG 1.1//EN" "http://www.w3.org/Graphics/SVG/1.1/DTD/svg11.dtd"><svg t="1606739813144" class="icon" viewBox="0 0 1024 1024" version="1.1" xmlns="http://www.w3.org/2000/svg" p-id="3858" xmlns:xlink="http://www.w3.org/1999/xlink" width="200" height="200"><defs><style type="text/css"></style></defs><path d="M512 938.666667C277.333333 938.666667 85.333333 746.666667 85.333333 512S277.333333 85.333333 512 85.333333s426.666667 192 426.666667 426.666667-192 426.666667-426.666667 426.666667z m0-768c-187.733333 0-341.333333 153.6-341.333333 341.333333s153.6 341.333333 341.333333 341.333333 341.333333-153.6 341.333333-341.333333-153.6-341.333333-341.333333-341.333333z" p-id="3859"></path><path d="M512 256c25.6 0 42.666667 17.066667 42.666667 42.666667v213.333333c0 25.6-17.066667 42.666667-42.666667 42.666667s-42.666667-17.066667-42.666667-42.666667V298.666667c0-25.6 17.066667-42.666667 42.666667-42.666667z" p-id="3860"></path><path d="M341.333333 512c0-25.6 17.066667-42.666667 42.666667-42.666667h128c25.6 0 42.666667 17.066667 42.666667 42.666667s-17.066667 42.666667-42.666667 42.666667H384c-25.6 0-42.666667-17.066667-42.666667-42.666667z" p-id="3861"></path></svg>